<?xml version="1.0" encoding="utf-8" standalone="no"?>
<!DOCTYPE svg PUBLIC "-//W3C//DTD SVG 1.1//EN"
  "http://www.w3.org/Graphics/SVG/1.1/DTD/svg11.dtd">
<svg xmlns:xlink="http://www.w3.org/1999/xlink" width="360pt" height="216pt" viewBox="0 0 360 216" xmlns="http://www.w3.org/2000/svg" version="1.1">
 <metadata>
  <rdf:RDF xmlns:dc="http://purl.org/dc/elements/1.1/" xmlns:cc="http://creativecommons.org/ns#" xmlns:rdf="http://www.w3.org/1999/02/22-rdf-syntax-ns#">
   <cc:Work>
    <dc:type rdf:resource="http://purl.org/dc/dcmitype/StillImage"/>
    <dc:date>2022-10-24T12:36:48.312199</dc:date>
    <dc:format>image/svg+xml</dc:format>
    <dc:creator>
     <cc:Agent>
      <dc:title>Matplotlib v3.5.2, https://matplotlib.org/</dc:title>
     </cc:Agent>
    </dc:creator>
   </cc:Work>
  </rdf:RDF>
 </metadata>
 <defs>
  <style type="text/css">*{stroke-linejoin: round; stroke-linecap: butt}</style>
 </defs>
 <g id="figure_1">
  <g id="patch_1">
   <path d="M 0 216 
L 360 216 
L 360 0 
L 0 0 
L 0 216 
z
" style="fill: none"/>
  </g>
  <g id="axes_1">
   <g id="patch_2">
    <path d="M 43.92 191.98 
L 349.2 191.98 
L 349.2 40.56 
L 43.92 40.56 
z
" style="fill: #ffffff"/>
   </g>
   <g id="patch_3">
    <path d="M 57.796364 191.98 
L 74.121497 191.98 
L 74.121497 44.400367 
L 57.796364 44.400367 
z
" clip-path="url(#p09ecbd6337)" style="fill: #9bd5e8; opacity: 0.9; stroke: #000000; stroke-linejoin: miter"/>
   </g>
   <g id="patch_4">
    <path d="M 139.422032 191.98 
L 155.747166 191.98 
L 155.747166 47.136152 
L 139.422032 47.136152 
z
" clip-path="url(#p09ecbd6337)" style="fill: #9bd5e8; opacity: 0.9; stroke: #000000; stroke-linejoin: miter"/>
   </g>
   <g id="patch_5">
    <path d="M 221.047701 191.98 
L 237.372834 191.98 
L 237.372834 45.640063 
L 221.047701 45.640063 
z
" clip-path="url(#p09ecbd6337)" style="fill: #9bd5e8; opacity: 0.9; stroke: #000000; stroke-linejoin: miter"/>
   </g>
   <g id="patch_6">
    <path d="M 302.673369 191.98 
L 318.998503 191.98 
L 318.998503 43.763559 
L 302.673369 43.763559 
z
" clip-path="url(#p09ecbd6337)" style="fill: #9bd5e8; opacity: 0.9; stroke: #000000; stroke-linejoin: miter"/>
   </g>
   <g id="patch_7">
    <path d="M 74.121497 191.98 
L 90.446631 191.98 
L 90.446631 46.628664 
L 74.121497 46.628664 
z
" clip-path="url(#p09ecbd6337)" style="fill: #f57f5c; opacity: 0.9; stroke: #000000; stroke-linejoin: miter"/>
   </g>
   <g id="patch_8">
    <path d="M 155.747166 191.98 
L 172.072299 191.98 
L 172.072299 58.332606 
L 155.747166 58.332606 
z
" clip-path="url(#p09ecbd6337)" style="fill: #f57f5c; opacity: 0.9; stroke: #000000; stroke-linejoin: miter"/>
   </g>
   <g id="patch_9">
    <path d="M 237.372834 191.98 
L 253.697968 191.98 
L 253.697968 51.95778 
L 237.372834 51.95778 
z
" clip-path="url(#p09ecbd6337)" style="fill: #f57f5c; opacity: 0.9; stroke: #000000; stroke-linejoin: miter"/>
   </g>
   <g id="patch_10">
    <path d="M 318.998503 191.98 
L 335.323636 191.98 
L 335.323636 44.287278 
L 318.998503 44.287278 
z
" clip-path="url(#p09ecbd6337)" style="fill: #f57f5c; opacity: 0.9; stroke: #000000; stroke-linejoin: miter"/>
   </g>
   <g id="matplotlib.axis_1">
    <g id="xtick_1">
     <g id="line2d_1">
      <defs>
       <path id="mf14d36c9f5" d="M 0 0 
L 0 -3.5 
" style="stroke: #000000; stroke-width: 1.5"/>
      </defs>
      <g>
       <use xlink:href="#mf14d36c9f5" x="74.121497" y="191.98" style="stroke: #000000; stroke-width: 1.5"/>
      </g>
     </g>
     <g id="text_1">
      <!-- KNN -->
      <g transform="translate(63.361341 203.078438)scale(0.1 -0.1)">
       <defs>
        <path id="DejaVuSans-4b" d="M 628 4666 
L 1259 4666 
L 1259 2694 
L 3353 4666 
L 4166 4666 
L 1850 2491 
L 4331 0 
L 3500 0 
L 1259 2247 
L 1259 0 
L 628 0 
L 628 4666 
z
" transform="scale(0.015625)"/>
        <path id="DejaVuSans-4e" d="M 628 4666 
L 1478 4666 
L 3547 763 
L 3547 4666 
L 4159 4666 
L 4159 0 
L 3309 0 
L 1241 3903 
L 1241 0 
L 628 0 
L 628 4666 
z
" transform="scale(0.015625)"/>
       </defs>
       <use xlink:href="#DejaVuSans-4b"/>
       <use xlink:href="#DejaVuSans-4e" x="65.576172"/>
       <use xlink:href="#DejaVuSans-4e" x="140.380859"/>
      </g>
     </g>
    </g>
    <g id="xtick_2">
     <g id="line2d_2">
      <g>
       <use xlink:href="#mf14d36c9f5" x="155.747166" y="191.98" style="stroke: #000000; stroke-width: 1.5"/>
      </g>
     </g>
     <g id="text_2">
      <!-- AdaBoost -->
      <g transform="translate(132.06201 203.078438)scale(0.1 -0.1)">
       <defs>
        <path id="DejaVuSans-41" d="M 2188 4044 
L 1331 1722 
L 3047 1722 
L 2188 4044 
z
M 1831 4666 
L 2547 4666 
L 4325 0 
L 3669 0 
L 3244 1197 
L 1141 1197 
L 716 0 
L 50 0 
L 1831 4666 
z
" transform="scale(0.015625)"/>
        <path id="DejaVuSans-64" d="M 2906 2969 
L 2906 4863 
L 3481 4863 
L 3481 0 
L 2906 0 
L 2906 525 
Q 2725 213 2448 61 
Q 2172 -91 1784 -91 
Q 1150 -91 751 415 
Q 353 922 353 1747 
Q 353 2572 751 3078 
Q 1150 3584 1784 3584 
Q 2172 3584 2448 3432 
Q 2725 3281 2906 2969 
z
M 947 1747 
Q 947 1113 1208 752 
Q 1469 391 1925 391 
Q 2381 391 2643 752 
Q 2906 1113 2906 1747 
Q 2906 2381 2643 2742 
Q 2381 3103 1925 3103 
Q 1469 3103 1208 2742 
Q 947 2381 947 1747 
z
" transform="scale(0.015625)"/>
        <path id="DejaVuSans-61" d="M 2194 1759 
Q 1497 1759 1228 1600 
Q 959 1441 959 1056 
Q 959 750 1161 570 
Q 1363 391 1709 391 
Q 2188 391 2477 730 
Q 2766 1069 2766 1631 
L 2766 1759 
L 2194 1759 
z
M 3341 1997 
L 3341 0 
L 2766 0 
L 2766 531 
Q 2569 213 2275 61 
Q 1981 -91 1556 -91 
Q 1019 -91 701 211 
Q 384 513 384 1019 
Q 384 1609 779 1909 
Q 1175 2209 1959 2209 
L 2766 2209 
L 2766 2266 
Q 2766 2663 2505 2880 
Q 2244 3097 1772 3097 
Q 1472 3097 1187 3025 
Q 903 2953 641 2809 
L 641 3341 
Q 956 3463 1253 3523 
Q 1550 3584 1831 3584 
Q 2591 3584 2966 3190 
Q 3341 2797 3341 1997 
z
" transform="scale(0.015625)"/>
        <path id="DejaVuSans-42" d="M 1259 2228 
L 1259 519 
L 2272 519 
Q 2781 519 3026 730 
Q 3272 941 3272 1375 
Q 3272 1813 3026 2020 
Q 2781 2228 2272 2228 
L 1259 2228 
z
M 1259 4147 
L 1259 2741 
L 2194 2741 
Q 2656 2741 2882 2914 
Q 3109 3088 3109 3444 
Q 3109 3797 2882 3972 
Q 2656 4147 2194 4147 
L 1259 4147 
z
M 628 4666 
L 2241 4666 
Q 2963 4666 3353 4366 
Q 3744 4066 3744 3513 
Q 3744 3084 3544 2831 
Q 3344 2578 2956 2516 
Q 3422 2416 3680 2098 
Q 3938 1781 3938 1306 
Q 3938 681 3513 340 
Q 3088 0 2303 0 
L 628 0 
L 628 4666 
z
" transform="scale(0.015625)"/>
        <path id="DejaVuSans-6f" d="M 1959 3097 
Q 1497 3097 1228 2736 
Q 959 2375 959 1747 
Q 959 1119 1226 758 
Q 1494 397 1959 397 
Q 2419 397 2687 759 
Q 2956 1122 2956 1747 
Q 2956 2369 2687 2733 
Q 2419 3097 1959 3097 
z
M 1959 3584 
Q 2709 3584 3137 3096 
Q 3566 2609 3566 1747 
Q 3566 888 3137 398 
Q 2709 -91 1959 -91 
Q 1206 -91 779 398 
Q 353 888 353 1747 
Q 353 2609 779 3096 
Q 1206 3584 1959 3584 
z
" transform="scale(0.015625)"/>
        <path id="DejaVuSans-73" d="M 2834 3397 
L 2834 2853 
Q 2591 2978 2328 3040 
Q 2066 3103 1784 3103 
Q 1356 3103 1142 2972 
Q 928 2841 928 2578 
Q 928 2378 1081 2264 
Q 1234 2150 1697 2047 
L 1894 2003 
Q 2506 1872 2764 1633 
Q 3022 1394 3022 966 
Q 3022 478 2636 193 
Q 2250 -91 1575 -91 
Q 1294 -91 989 -36 
Q 684 19 347 128 
L 347 722 
Q 666 556 975 473 
Q 1284 391 1588 391 
Q 1994 391 2212 530 
Q 2431 669 2431 922 
Q 2431 1156 2273 1281 
Q 2116 1406 1581 1522 
L 1381 1569 
Q 847 1681 609 1914 
Q 372 2147 372 2553 
Q 372 3047 722 3315 
Q 1072 3584 1716 3584 
Q 2034 3584 2315 3537 
Q 2597 3491 2834 3397 
z
" transform="scale(0.015625)"/>
        <path id="DejaVuSans-74" d="M 1172 4494 
L 1172 3500 
L 2356 3500 
L 2356 3053 
L 1172 3053 
L 1172 1153 
Q 1172 725 1289 603 
Q 1406 481 1766 481 
L 2356 481 
L 2356 0 
L 1766 0 
Q 1100 0 847 248 
Q 594 497 594 1153 
L 594 3053 
L 172 3053 
L 172 3500 
L 594 3500 
L 594 4494 
L 1172 4494 
z
" transform="scale(0.015625)"/>
       </defs>
       <use xlink:href="#DejaVuSans-41"/>
       <use xlink:href="#DejaVuSans-64" x="66.658203"/>
       <use xlink:href="#DejaVuSans-61" x="130.134766"/>
       <use xlink:href="#DejaVuSans-42" x="191.414062"/>
       <use xlink:href="#DejaVuSans-6f" x="260.017578"/>
       <use xlink:href="#DejaVuSans-6f" x="321.199219"/>
       <use xlink:href="#DejaVuSans-73" x="382.380859"/>
       <use xlink:href="#DejaVuSans-74" x="434.480469"/>
      </g>
     </g>
    </g>
    <g id="xtick_3">
     <g id="line2d_3">
      <g>
       <use xlink:href="#mf14d36c9f5" x="237.372834" y="191.98" style="stroke: #000000; stroke-width: 1.5"/>
      </g>
     </g>
     <g id="text_3">
      <!-- DT -->
      <g transform="translate(230.468928 203.078438)scale(0.1 -0.1)">
       <defs>
        <path id="DejaVuSans-44" d="M 1259 4147 
L 1259 519 
L 2022 519 
Q 2988 519 3436 956 
Q 3884 1394 3884 2338 
Q 3884 3275 3436 3711 
Q 2988 4147 2022 4147 
L 1259 4147 
z
M 628 4666 
L 1925 4666 
Q 3281 4666 3915 4102 
Q 4550 3538 4550 2338 
Q 4550 1131 3912 565 
Q 3275 0 1925 0 
L 628 0 
L 628 4666 
z
" transform="scale(0.015625)"/>
        <path id="DejaVuSans-54" d="M -19 4666 
L 3928 4666 
L 3928 4134 
L 2272 4134 
L 2272 0 
L 1638 0 
L 1638 4134 
L -19 4134 
L -19 4666 
z
" transform="scale(0.015625)"/>
       </defs>
       <use xlink:href="#DejaVuSans-44"/>
       <use xlink:href="#DejaVuSans-54" x="77.001953"/>
      </g>
     </g>
    </g>
    <g id="xtick_4">
     <g id="line2d_4">
      <g>
       <use xlink:href="#mf14d36c9f5" x="318.998503" y="191.98" style="stroke: #000000; stroke-width: 1.5"/>
      </g>
     </g>
     <g id="text_4">
      <!-- RF -->
      <g transform="translate(312.648503 203.078438)scale(0.1 -0.1)">
       <defs>
        <path id="DejaVuSans-52" d="M 2841 2188 
Q 3044 2119 3236 1894 
Q 3428 1669 3622 1275 
L 4263 0 
L 3584 0 
L 2988 1197 
Q 2756 1666 2539 1819 
Q 2322 1972 1947 1972 
L 1259 1972 
L 1259 0 
L 628 0 
L 628 4666 
L 2053 4666 
Q 2853 4666 3247 4331 
Q 3641 3997 3641 3322 
Q 3641 2881 3436 2590 
Q 3231 2300 2841 2188 
z
M 1259 4147 
L 1259 2491 
L 2053 2491 
Q 2509 2491 2742 2702 
Q 2975 2913 2975 3322 
Q 2975 3731 2742 3939 
Q 2509 4147 2053 4147 
L 1259 4147 
z
" transform="scale(0.015625)"/>
        <path id="DejaVuSans-46" d="M 628 4666 
L 3309 4666 
L 3309 4134 
L 1259 4134 
L 1259 2759 
L 3109 2759 
L 3109 2228 
L 1259 2228 
L 1259 0 
L 628 0 
L 628 4666 
z
" transform="scale(0.015625)"/>
       </defs>
       <use xlink:href="#DejaVuSans-52"/>
       <use xlink:href="#DejaVuSans-46" x="69.482422"/>
      </g>
     </g>
    </g>
   </g>
   <g id="matplotlib.axis_2">
    <g id="ytick_1">
     <g id="line2d_5">
      <defs>
       <path id="mb54e71051c" d="M 0 0 
L 3.5 0 
" style="stroke: #000000; stroke-width: 1.5"/>
      </defs>
      <g>
       <use xlink:href="#mb54e71051c" x="43.92" y="191.98" style="stroke: #000000; stroke-width: 1.5"/>
      </g>
     </g>
     <g id="text_5">
      <!-- 0.0 -->
      <g transform="translate(24.516875 195.779219)scale(0.1 -0.1)">
       <defs>
        <path id="DejaVuSans-30" d="M 2034 4250 
Q 1547 4250 1301 3770 
Q 1056 3291 1056 2328 
Q 1056 1369 1301 889 
Q 1547 409 2034 409 
Q 2525 409 2770 889 
Q 3016 1369 3016 2328 
Q 3016 3291 2770 3770 
Q 2525 4250 2034 4250 
z
M 2034 4750 
Q 2819 4750 3233 4129 
Q 3647 3509 3647 2328 
Q 3647 1150 3233 529 
Q 2819 -91 2034 -91 
Q 1250 -91 836 529 
Q 422 1150 422 2328 
Q 422 3509 836 4129 
Q 1250 4750 2034 4750 
z
" transform="scale(0.015625)"/>
        <path id="DejaVuSans-2e" d="M 684 794 
L 1344 794 
L 1344 0 
L 684 0 
L 684 794 
z
" transform="scale(0.015625)"/>
       </defs>
       <use xlink:href="#DejaVuSans-30"/>
       <use xlink:href="#DejaVuSans-2e" x="63.623047"/>
       <use xlink:href="#DejaVuSans-30" x="95.410156"/>
      </g>
     </g>
    </g>
    <g id="ytick_2">
     <g id="line2d_6">
      <g>
       <use xlink:href="#mb54e71051c" x="43.92" y="162.289804" style="stroke: #000000; stroke-width: 1.5"/>
      </g>
     </g>
     <g id="text_6">
      <!-- 0.2 -->
      <g transform="translate(24.516875 166.089023)scale(0.1 -0.1)">
       <defs>
        <path id="DejaVuSans-32" d="M 1228 531 
L 3431 531 
L 3431 0 
L 469 0 
L 469 531 
Q 828 903 1448 1529 
Q 2069 2156 2228 2338 
Q 2531 2678 2651 2914 
Q 2772 3150 2772 3378 
Q 2772 3750 2511 3984 
Q 2250 4219 1831 4219 
Q 1534 4219 1204 4116 
Q 875 4013 500 3803 
L 500 4441 
Q 881 4594 1212 4672 
Q 1544 4750 1819 4750 
Q 2544 4750 2975 4387 
Q 3406 4025 3406 3419 
Q 3406 3131 3298 2873 
Q 3191 2616 2906 2266 
Q 2828 2175 2409 1742 
Q 1991 1309 1228 531 
z
" transform="scale(0.015625)"/>
       </defs>
       <use xlink:href="#DejaVuSans-30"/>
       <use xlink:href="#DejaVuSans-2e" x="63.623047"/>
       <use xlink:href="#DejaVuSans-32" x="95.410156"/>
      </g>
     </g>
    </g>
    <g id="ytick_3">
     <g id="line2d_7">
      <g>
       <use xlink:href="#mb54e71051c" x="43.92" y="132.599608" style="stroke: #000000; stroke-width: 1.5"/>
      </g>
     </g>
     <g id="text_7">
      <!-- 0.4 -->
      <g transform="translate(24.516875 136.398827)scale(0.1 -0.1)">
       <defs>
        <path id="DejaVuSans-34" d="M 2419 4116 
L 825 1625 
L 2419 1625 
L 2419 4116 
z
M 2253 4666 
L 3047 4666 
L 3047 1625 
L 3713 1625 
L 3713 1100 
L 3047 1100 
L 3047 0 
L 2419 0 
L 2419 1100 
L 313 1100 
L 313 1709 
L 2253 4666 
z
" transform="scale(0.015625)"/>
       </defs>
       <use xlink:href="#DejaVuSans-30"/>
       <use xlink:href="#DejaVuSans-2e" x="63.623047"/>
       <use xlink:href="#DejaVuSans-34" x="95.410156"/>
      </g>
     </g>
    </g>
    <g id="ytick_4">
     <g id="line2d_8">
      <g>
       <use xlink:href="#mb54e71051c" x="43.92" y="102.909412" style="stroke: #000000; stroke-width: 1.5"/>
      </g>
     </g>
     <g id="text_8">
      <!-- 0.6 -->
      <g transform="translate(24.516875 106.708631)scale(0.1 -0.1)">
       <defs>
        <path id="DejaVuSans-36" d="M 2113 2584 
Q 1688 2584 1439 2293 
Q 1191 2003 1191 1497 
Q 1191 994 1439 701 
Q 1688 409 2113 409 
Q 2538 409 2786 701 
Q 3034 994 3034 1497 
Q 3034 2003 2786 2293 
Q 2538 2584 2113 2584 
z
M 3366 4563 
L 3366 3988 
Q 3128 4100 2886 4159 
Q 2644 4219 2406 4219 
Q 1781 4219 1451 3797 
Q 1122 3375 1075 2522 
Q 1259 2794 1537 2939 
Q 1816 3084 2150 3084 
Q 2853 3084 3261 2657 
Q 3669 2231 3669 1497 
Q 3669 778 3244 343 
Q 2819 -91 2113 -91 
Q 1303 -91 875 529 
Q 447 1150 447 2328 
Q 447 3434 972 4092 
Q 1497 4750 2381 4750 
Q 2619 4750 2861 4703 
Q 3103 4656 3366 4563 
z
" transform="scale(0.015625)"/>
       </defs>
       <use xlink:href="#DejaVuSans-30"/>
       <use xlink:href="#DejaVuSans-2e" x="63.623047"/>
       <use xlink:href="#DejaVuSans-36" x="95.410156"/>
      </g>
     </g>
    </g>
    <g id="ytick_5">
     <g id="line2d_9">
      <g>
       <use xlink:href="#mb54e71051c" x="43.92" y="73.219216" style="stroke: #000000; stroke-width: 1.5"/>
      </g>
     </g>
     <g id="text_9">
      <!-- 0.8 -->
      <g transform="translate(24.516875 77.018434)scale(0.1 -0.1)">
       <defs>
        <path id="DejaVuSans-38" d="M 2034 2216 
Q 1584 2216 1326 1975 
Q 1069 1734 1069 1313 
Q 1069 891 1326 650 
Q 1584 409 2034 409 
Q 2484 409 2743 651 
Q 3003 894 3003 1313 
Q 3003 1734 2745 1975 
Q 2488 2216 2034 2216 
z
M 1403 2484 
Q 997 2584 770 2862 
Q 544 3141 544 3541 
Q 544 4100 942 4425 
Q 1341 4750 2034 4750 
Q 2731 4750 3128 4425 
Q 3525 4100 3525 3541 
Q 3525 3141 3298 2862 
Q 3072 2584 2669 2484 
Q 3125 2378 3379 2068 
Q 3634 1759 3634 1313 
Q 3634 634 3220 271 
Q 2806 -91 2034 -91 
Q 1263 -91 848 271 
Q 434 634 434 1313 
Q 434 1759 690 2068 
Q 947 2378 1403 2484 
z
M 1172 3481 
Q 1172 3119 1398 2916 
Q 1625 2713 2034 2713 
Q 2441 2713 2670 2916 
Q 2900 3119 2900 3481 
Q 2900 3844 2670 4047 
Q 2441 4250 2034 4250 
Q 1625 4250 1398 4047 
Q 1172 3844 1172 3481 
z
" transform="scale(0.015625)"/>
       </defs>
       <use xlink:href="#DejaVuSans-30"/>
       <use xlink:href="#DejaVuSans-2e" x="63.623047"/>
       <use xlink:href="#DejaVuSans-38" x="95.410156"/>
      </g>
     </g>
    </g>
    <g id="ytick_6">
     <g id="line2d_10">
      <g>
       <use xlink:href="#mb54e71051c" x="43.92" y="43.52902" style="stroke: #000000; stroke-width: 1.5"/>
      </g>
     </g>
     <g id="text_10">
      <!-- 1.0 -->
      <g transform="translate(24.516875 47.328238)scale(0.1 -0.1)">
       <defs>
        <path id="DejaVuSans-31" d="M 794 531 
L 1825 531 
L 1825 4091 
L 703 3866 
L 703 4441 
L 1819 4666 
L 2450 4666 
L 2450 531 
L 3481 531 
L 3481 0 
L 794 0 
L 794 531 
z
" transform="scale(0.015625)"/>
       </defs>
       <use xlink:href="#DejaVuSans-31"/>
       <use xlink:href="#DejaVuSans-2e" x="63.623047"/>
       <use xlink:href="#DejaVuSans-30" x="95.410156"/>
      </g>
     </g>
    </g>
    <g id="text_11">
     <!-- $R^2$ score -->
     <g transform="translate(18.437188 137.62)rotate(-90)scale(0.1 -0.1)">
      <defs>
       <path id="DejaVuSans-Oblique-52" d="M 1613 4147 
L 1294 2491 
L 2106 2491 
Q 2584 2491 2879 2755 
Q 3175 3019 3175 3444 
Q 3175 3784 2976 3965 
Q 2778 4147 2406 4147 
L 1613 4147 
z
M 2772 2241 
Q 2972 2194 3105 2009 
Q 3238 1825 3413 1275 
L 3809 0 
L 3144 0 
L 2778 1197 
Q 2638 1659 2453 1815 
Q 2269 1972 1888 1972 
L 1191 1972 
L 806 0 
L 172 0 
L 1081 4666 
L 2503 4666 
Q 3150 4666 3495 4373 
Q 3841 4081 3841 3531 
Q 3841 3044 3547 2687 
Q 3253 2331 2772 2241 
z
" transform="scale(0.015625)"/>
       <path id="DejaVuSans-20" transform="scale(0.015625)"/>
       <path id="DejaVuSans-63" d="M 3122 3366 
L 3122 2828 
Q 2878 2963 2633 3030 
Q 2388 3097 2138 3097 
Q 1578 3097 1268 2742 
Q 959 2388 959 1747 
Q 959 1106 1268 751 
Q 1578 397 2138 397 
Q 2388 397 2633 464 
Q 2878 531 3122 666 
L 3122 134 
Q 2881 22 2623 -34 
Q 2366 -91 2075 -91 
Q 1284 -91 818 406 
Q 353 903 353 1747 
Q 353 2603 823 3093 
Q 1294 3584 2113 3584 
Q 2378 3584 2631 3529 
Q 2884 3475 3122 3366 
z
" transform="scale(0.015625)"/>
       <path id="DejaVuSans-72" d="M 2631 2963 
Q 2534 3019 2420 3045 
Q 2306 3072 2169 3072 
Q 1681 3072 1420 2755 
Q 1159 2438 1159 1844 
L 1159 0 
L 581 0 
L 581 3500 
L 1159 3500 
L 1159 2956 
Q 1341 3275 1631 3429 
Q 1922 3584 2338 3584 
Q 2397 3584 2469 3576 
Q 2541 3569 2628 3553 
L 2631 2963 
z
" transform="scale(0.015625)"/>
       <path id="DejaVuSans-65" d="M 3597 1894 
L 3597 1613 
L 953 1613 
Q 991 1019 1311 708 
Q 1631 397 2203 397 
Q 2534 397 2845 478 
Q 3156 559 3463 722 
L 3463 178 
Q 3153 47 2828 -22 
Q 2503 -91 2169 -91 
Q 1331 -91 842 396 
Q 353 884 353 1716 
Q 353 2575 817 3079 
Q 1281 3584 2069 3584 
Q 2775 3584 3186 3129 
Q 3597 2675 3597 1894 
z
M 3022 2063 
Q 3016 2534 2758 2815 
Q 2500 3097 2075 3097 
Q 1594 3097 1305 2825 
Q 1016 2553 972 2059 
L 3022 2063 
z
" transform="scale(0.015625)"/>
      </defs>
      <use xlink:href="#DejaVuSans-Oblique-52" transform="translate(0 0.765625)"/>
      <use xlink:href="#DejaVuSans-32" transform="translate(76.499193 39.046875)scale(0.7)"/>
      <use xlink:href="#DejaVuSans-20" transform="translate(123.769701 0.765625)"/>
      <use xlink:href="#DejaVuSans-73" transform="translate(155.55681 0.765625)"/>
      <use xlink:href="#DejaVuSans-63" transform="translate(207.656419 0.765625)"/>
      <use xlink:href="#DejaVuSans-6f" transform="translate(262.636888 0.765625)"/>
      <use xlink:href="#DejaVuSans-72" transform="translate(323.818529 0.765625)"/>
      <use xlink:href="#DejaVuSans-65" transform="translate(364.93181 0.765625)"/>
     </g>
    </g>
   </g>
   <g id="LineCollection_1">
    <path d="M 65.95893 44.500903 
L 65.95893 44.299831 
" clip-path="url(#p09ecbd6337)" style="fill: none; stroke: #333333; stroke-width: 0.9"/>
    <path d="M 147.584599 47.423007 
L 147.584599 46.849298 
" clip-path="url(#p09ecbd6337)" style="fill: none; stroke: #333333; stroke-width: 0.9"/>
    <path d="M 229.210267 45.95143 
L 229.210267 45.328695 
" clip-path="url(#p09ecbd6337)" style="fill: none; stroke: #333333; stroke-width: 0.9"/>
    <path d="M 310.835936 43.799564 
L 310.835936 43.727553 
" clip-path="url(#p09ecbd6337)" style="fill: none; stroke: #333333; stroke-width: 0.9"/>
   </g>
   <g id="line2d_11">
    <defs>
     <path id="m6c66eac7d2" d="M 1.5 0 
L -1.5 -0 
" style="stroke: #333333; stroke-width: 0.7"/>
    </defs>
    <g clip-path="url(#p09ecbd6337)">
     <use xlink:href="#m6c66eac7d2" x="65.95893" y="44.500903" style="fill: #333333; stroke: #333333; stroke-width: 0.7"/>
     <use xlink:href="#m6c66eac7d2" x="147.584599" y="47.423007" style="fill: #333333; stroke: #333333; stroke-width: 0.7"/>
     <use xlink:href="#m6c66eac7d2" x="229.210267" y="45.95143" style="fill: #333333; stroke: #333333; stroke-width: 0.7"/>
     <use xlink:href="#m6c66eac7d2" x="310.835936" y="43.799564" style="fill: #333333; stroke: #333333; stroke-width: 0.7"/>
    </g>
   </g>
   <g id="line2d_12">
    <g clip-path="url(#p09ecbd6337)">
     <use xlink:href="#m6c66eac7d2" x="65.95893" y="44.299831" style="fill: #333333; stroke: #333333; stroke-width: 0.7"/>
     <use xlink:href="#m6c66eac7d2" x="147.584599" y="46.849298" style="fill: #333333; stroke: #333333; stroke-width: 0.7"/>
     <use xlink:href="#m6c66eac7d2" x="229.210267" y="45.328695" style="fill: #333333; stroke: #333333; stroke-width: 0.7"/>
     <use xlink:href="#m6c66eac7d2" x="310.835936" y="43.727553" style="fill: #333333; stroke: #333333; stroke-width: 0.7"/>
    </g>
   </g>
   <g id="LineCollection_2">
    <path d="M 82.284064 47.053469 
L 82.284064 46.203858 
" clip-path="url(#p09ecbd6337)" style="fill: none; stroke: #333333; stroke-width: 0.9"/>
    <path d="M 163.909733 59.240271 
L 163.909733 57.424941 
" clip-path="url(#p09ecbd6337)" style="fill: none; stroke: #333333; stroke-width: 0.9"/>
    <path d="M 245.535401 52.775841 
L 245.535401 51.139719 
" clip-path="url(#p09ecbd6337)" style="fill: none; stroke: #333333; stroke-width: 0.9"/>
    <path d="M 327.16107 44.493356 
L 327.16107 44.081201 
" clip-path="url(#p09ecbd6337)" style="fill: none; stroke: #333333; stroke-width: 0.9"/>
   </g>
   <g id="line2d_13">
    <g clip-path="url(#p09ecbd6337)">
     <use xlink:href="#m6c66eac7d2" x="82.284064" y="47.053469" style="fill: #333333; stroke: #333333; stroke-width: 0.7"/>
     <use xlink:href="#m6c66eac7d2" x="163.909733" y="59.240271" style="fill: #333333; stroke: #333333; stroke-width: 0.7"/>
     <use xlink:href="#m6c66eac7d2" x="245.535401" y="52.775841" style="fill: #333333; stroke: #333333; stroke-width: 0.7"/>
     <use xlink:href="#m6c66eac7d2" x="327.16107" y="44.493356" style="fill: #333333; stroke: #333333; stroke-width: 0.7"/>
    </g>
   </g>
   <g id="line2d_14">
    <g clip-path="url(#p09ecbd6337)">
     <use xlink:href="#m6c66eac7d2" x="82.284064" y="46.203858" style="fill: #333333; stroke: #333333; stroke-width: 0.7"/>
     <use xlink:href="#m6c66eac7d2" x="163.909733" y="57.424941" style="fill: #333333; stroke: #333333; stroke-width: 0.7"/>
     <use xlink:href="#m6c66eac7d2" x="245.535401" y="51.139719" style="fill: #333333; stroke: #333333; stroke-width: 0.7"/>
     <use xlink:href="#m6c66eac7d2" x="327.16107" y="44.081201" style="fill: #333333; stroke: #333333; stroke-width: 0.7"/>
    </g>
   </g>
   <g id="patch_11">
    <path d="M 43.92 191.98 
L 43.92 40.56 
" style="fill: none; stroke: #000000; stroke-width: 2; stroke-linejoin: miter; stroke-linecap: square"/>
   </g>
   <g id="patch_12">
    <path d="M 349.2 191.98 
L 349.2 40.56 
" style="fill: none; stroke: #000000; stroke-width: 2; stroke-linejoin: miter; stroke-linecap: square"/>
   </g>
   <g id="patch_13">
    <path d="M 43.92 191.98 
L 349.2 191.98 
" style="fill: none; stroke: #000000; stroke-width: 2; stroke-linejoin: miter; stroke-linecap: square"/>
   </g>
   <g id="patch_14">
    <path d="M 43.92 40.56 
L 349.2 40.56 
" style="fill: none; stroke: #000000; stroke-width: 2; stroke-linejoin: miter; stroke-linecap: square"/>
   </g>
   <g id="legend_1">
    <g id="patch_15">
     <path d="M 254.0576 36.56 
L 345.48635 36.56 
Q 347.08635 36.56 347.08635 34.96 
L 347.08635 12.275 
Q 347.08635 10.675 345.48635 10.675 
L 254.0576 10.675 
Q 252.4576 10.675 252.4576 12.275 
L 252.4576 34.96 
Q 252.4576 36.56 254.0576 36.56 
z
" style="fill: #ffffff; opacity: 0.4; stroke: #cccccc; stroke-linejoin: miter"/>
    </g>
    <g id="patch_16">
     <path d="M 255.6576 19.95375 
L 271.6576 19.95375 
L 271.6576 14.35375 
L 255.6576 14.35375 
z
" style="fill: #9bd5e8; opacity: 0.9; stroke: #000000; stroke-linejoin: miter"/>
    </g>
    <g id="text_12">
     <!-- Laves phase -->
     <g transform="translate(278.0576 19.95375)scale(0.08 -0.08)">
      <defs>
       <path id="DejaVuSans-4c" d="M 628 4666 
L 1259 4666 
L 1259 531 
L 3531 531 
L 3531 0 
L 628 0 
L 628 4666 
z
" transform="scale(0.015625)"/>
       <path id="DejaVuSans-76" d="M 191 3500 
L 800 3500 
L 1894 563 
L 2988 3500 
L 3597 3500 
L 2284 0 
L 1503 0 
L 191 3500 
z
" transform="scale(0.015625)"/>
       <path id="DejaVuSans-70" d="M 1159 525 
L 1159 -1331 
L 581 -1331 
L 581 3500 
L 1159 3500 
L 1159 2969 
Q 1341 3281 1617 3432 
Q 1894 3584 2278 3584 
Q 2916 3584 3314 3078 
Q 3713 2572 3713 1747 
Q 3713 922 3314 415 
Q 2916 -91 2278 -91 
Q 1894 -91 1617 61 
Q 1341 213 1159 525 
z
M 3116 1747 
Q 3116 2381 2855 2742 
Q 2594 3103 2138 3103 
Q 1681 3103 1420 2742 
Q 1159 2381 1159 1747 
Q 1159 1113 1420 752 
Q 1681 391 2138 391 
Q 2594 391 2855 752 
Q 3116 1113 3116 1747 
z
" transform="scale(0.015625)"/>
       <path id="DejaVuSans-68" d="M 3513 2113 
L 3513 0 
L 2938 0 
L 2938 2094 
Q 2938 2591 2744 2837 
Q 2550 3084 2163 3084 
Q 1697 3084 1428 2787 
Q 1159 2491 1159 1978 
L 1159 0 
L 581 0 
L 581 4863 
L 1159 4863 
L 1159 2956 
Q 1366 3272 1645 3428 
Q 1925 3584 2291 3584 
Q 2894 3584 3203 3211 
Q 3513 2838 3513 2113 
z
" transform="scale(0.015625)"/>
      </defs>
      <use xlink:href="#DejaVuSans-4c"/>
      <use xlink:href="#DejaVuSans-61" x="55.712891"/>
      <use xlink:href="#DejaVuSans-76" x="116.992188"/>
      <use xlink:href="#DejaVuSans-65" x="176.171875"/>
      <use xlink:href="#DejaVuSans-73" x="237.695312"/>
      <use xlink:href="#DejaVuSans-20" x="289.794922"/>
      <use xlink:href="#DejaVuSans-70" x="321.582031"/>
      <use xlink:href="#DejaVuSans-68" x="385.058594"/>
      <use xlink:href="#DejaVuSans-61" x="448.4375"/>
      <use xlink:href="#DejaVuSans-73" x="509.716797"/>
      <use xlink:href="#DejaVuSans-65" x="561.816406"/>
     </g>
    </g>
    <g id="patch_17">
     <path d="M 255.6576 31.69625 
L 271.6576 31.69625 
L 271.6576 26.09625 
L 255.6576 26.09625 
z
" style="fill: #f57f5c; opacity: 0.9; stroke: #000000; stroke-linejoin: miter"/>
    </g>
    <g id="text_13">
     <!-- Ni3Ti precipitate -->
     <g transform="translate(278.0576 31.69625)scale(0.08 -0.08)">
      <defs>
       <path id="DejaVuSans-69" d="M 603 3500 
L 1178 3500 
L 1178 0 
L 603 0 
L 603 3500 
z
M 603 4863 
L 1178 4863 
L 1178 4134 
L 603 4134 
L 603 4863 
z
" transform="scale(0.015625)"/>
       <path id="DejaVuSans-33" d="M 2597 2516 
Q 3050 2419 3304 2112 
Q 3559 1806 3559 1356 
Q 3559 666 3084 287 
Q 2609 -91 1734 -91 
Q 1441 -91 1130 -33 
Q 819 25 488 141 
L 488 750 
Q 750 597 1062 519 
Q 1375 441 1716 441 
Q 2309 441 2620 675 
Q 2931 909 2931 1356 
Q 2931 1769 2642 2001 
Q 2353 2234 1838 2234 
L 1294 2234 
L 1294 2753 
L 1863 2753 
Q 2328 2753 2575 2939 
Q 2822 3125 2822 3475 
Q 2822 3834 2567 4026 
Q 2313 4219 1838 4219 
Q 1578 4219 1281 4162 
Q 984 4106 628 3988 
L 628 4550 
Q 988 4650 1302 4700 
Q 1616 4750 1894 4750 
Q 2613 4750 3031 4423 
Q 3450 4097 3450 3541 
Q 3450 3153 3228 2886 
Q 3006 2619 2597 2516 
z
" transform="scale(0.015625)"/>
      </defs>
      <use xlink:href="#DejaVuSans-4e"/>
      <use xlink:href="#DejaVuSans-69" x="74.804688"/>
      <use xlink:href="#DejaVuSans-33" x="102.587891"/>
      <use xlink:href="#DejaVuSans-54" x="166.210938"/>
      <use xlink:href="#DejaVuSans-69" x="224.169922"/>
      <use xlink:href="#DejaVuSans-20" x="251.953125"/>
      <use xlink:href="#DejaVuSans-70" x="283.740234"/>
      <use xlink:href="#DejaVuSans-72" x="347.216797"/>
      <use xlink:href="#DejaVuSans-65" x="386.080078"/>
      <use xlink:href="#DejaVuSans-63" x="447.603516"/>
      <use xlink:href="#DejaVuSans-69" x="502.583984"/>
      <use xlink:href="#DejaVuSans-70" x="530.367188"/>
      <use xlink:href="#DejaVuSans-69" x="593.84375"/>
      <use xlink:href="#DejaVuSans-74" x="621.626953"/>
      <use xlink:href="#DejaVuSans-61" x="660.835938"/>
      <use xlink:href="#DejaVuSans-74" x="722.115234"/>
      <use xlink:href="#DejaVuSans-65" x="761.324219"/>
     </g>
    </g>
   </g>
  </g>
 </g>
 <defs>
  <clipPath id="p09ecbd6337">
   <rect x="43.92" y="40.56" width="305.28" height="151.42"/>
  </clipPath>
 </defs>
</svg>
